<svg width="300" height="150" viewBox="0 0 300 150" xmlns="http://www.w3.org/2000/svg">
  <!-- Dark Rounded Container -->
  <rect x="20" y="20" width="260" height="110" rx="55" fill="#3c3c3c"/>

  <!-- Path Definitions -->
  <defs>
    <linearGradient id="circleGradient" x1="0" y1="0" x2="1" y2="1">
      <stop offset="0%" stop-color="#3049EB" />
      <stop offset="50%" stop-color="#A8F241" />
      <stop offset="100%" stop-color="#F987DE" />
    </linearGradient>

    <!-- Path starting at middle-top -->
    <path id="orbitPath" d="M 150,20
                             L 225,20
                             A 55 55 0 0 1 280,75
                             L 280,75
                             A 55 55 0 0 1 225,130
                             L 75,130
                             A 55 55 0 0 1 20,75
                             L 20,75
                             A 55 55 0 0 1 75,20
                             L 150,20" />
  </defs>

  <!-- Orbit Stroke Animation -->
  <path d="M 150,20
           L 225,20
           A 55 55 0 0 1 280,75
           L 280,75
           A 55 55 0 0 1 225,130
           L 75,130
           A 55 55 0 0 1 20,75
           L 20,75
           A 55 55 0 0 1 75,20
           L 150,20"
        fill="none"
        stroke="#E5E82D"
        stroke-width="5"
        stroke-dasharray="650"
        stroke-dashoffset="650">
    <animate attributeName="stroke-dashoffset"
             from="650"
             to="0"
             dur="7s"
             repeatCount="indefinite" />
  </path>

  <!-- Orbiting Circle -->
  <g>
    <circle r="15" cx="0" cy="0" fill="url(#circleGradient)" stroke="white" stroke-width="2" />
    <animateMotion dur="7s" repeatCount="indefinite" rotate="auto" calcMode="linear">
      <mpath href="#orbitPath" />
    </animateMotion>
    <animateTransform
      attributeName="transform"
      attributeType="XML"
      type="rotate"
      from="0"
      to="360"
      begin="0s"
      dur="2s"
      repeatCount="indefinite" />
  </g>

  <!-- Time Text -->
  <text x="50%" y="90" text-anchor="middle" font-size="50" font-family="Arial, sans-serif" fill="white" font-weight="bold">
    03 : 45
  </text>
</svg>
